<?xml version="1.0" standalone="no"?>
<!DOCTYPE svg PUBLIC "-//W3C//DTD SVG 20010904//EN" "http://www.w3.org/TR/2001/REC-SVG-20010904/DTD/svg10.dtd">
<svg version="1.0"
  xmlns="http://www.w3.org/2000/svg" width="368.000000pt" height="134.000000pt" viewBox="0 0 368.000000 134.000000" preserveAspectRatio="xMidYMid meet">
  <g transform="translate(0.000000,134.000000) scale(0.100000,-0.100000)" fill="#000000" stroke="none">
    <path d="M3165 1069 c-78 -33 -107 -54 -63 -47 16 3 36 -1 45 -8 16 -11 18
-44 23 -356 l5 -343 59 -30 c48 -24 72 -29 125 -29 80 1 125 19 184 73 62 58
89 123 89 221 1 100 -31 174 -91 218 -81 59 -161 51 -235 -24 l-46 -46 0 201
c0 155 -3 201 -12 200 -7 0 -44 -14 -83 -30z m274 -354 c39 -20 78 -69 91
-113 23 -83 7 -192 -36 -250 -46 -60 -106 -76 -167 -46 -68 35 -67 32 -67 204
0 172 0 170 65 204 38 20 78 20 114 1z" />
    <path d="M10 1050 c0 -5 14 -10 31 -10 45 0 67 -16 79 -58 13 -48 13 -595 0
-643 -11 -38 -41 -59 -85 -59 -14 0 -25 -4 -25 -10 0 -6 63 -10 170 -10 107 0
170 4 170 10 0 6 -14 10 -31 10 -75 0 -89 36 -89 228 l0 132 43 -7 c63 -12
157 -9 200 6 84 29 136 104 137 199 0 116 -73 189 -211 211 -84 14 -389 14
-389 1z m405 -66 c37 -24 65 -92 65 -155 0 -103 -60 -169 -154 -169 -103 0
-97 -11 -94 179 l3 166 40 5 c48 7 107 -5 140 -26z" />
    <path d="M1850 1050 c0 -5 14 -10 30 -10 19 0 40 -9 55 -25 l25 -24 0 -331 0
-331 -25 -24 c-15 -16 -36 -25 -55 -25 -16 0 -30 -4 -30 -10 0 -6 108 -10 303
-10 l304 0 33 105 c32 102 36 153 7 83 -20 -48 -76 -108 -114 -124 -49 -21
-276 -19 -297 2 -14 13 -16 58 -16 335 0 190 4 328 10 339 10 20 59 40 96 40
13 0 24 5 24 10 0 6 -65 10 -175 10 -110 0 -175 -4 -175 -10z" />
    <path d="M1343 925 c-29 -57 -110 -145 -133 -145 -5 0 -10 -4 -10 -10 0 -5 20
-10 44 -10 l45 0 3 -224 c3 -221 3 -225 27 -250 49 -52 132 -37 178 33 28 41
22 53 -10 23 -30 -29 -71 -28 -91 0 -13 19 -16 57 -16 220 l0 198 65 0 c58 0
65 2 65 20 0 18 -7 20 -65 20 l-64 0 -3 93 -3 92 -32 -60z" />
    <path d="M895 801 c-84 -22 -146 -83 -172 -170 -21 -73 -14 -191 15 -247 49
-96 156 -150 250 -124 56 15 126 79 148 135 20 54 14 83 -9 39 -90 -173 -337
-78 -337 129 l0 37 184 0 183 0 -8 43 c-4 23 -8 45 -9 49 0 14 -64 79 -90 93
-34 18 -116 26 -155 16z m90 -53 c15 -12 34 -36 41 -54 27 -64 27 -64 -111
-64 -119 0 -125 1 -125 20 0 90 125 153 195 98z" />
    <path d="M2743 801 c-74 -19 -122 -68 -123 -123 0 -36 19 -58 49 -58 22 0 41
33 41 74 0 70 64 105 129 71 38 -19 51 -49 51 -115 0 -44 -2 -48 -27 -54 -64
-16 -212 -97 -237 -129 -39 -51 -37 -124 4 -171 54 -61 131 -57 219 14 41 32
51 30 51 -6 0 -14 10 -30 25 -40 33 -22 84 -5 125 42 38 44 39 62 1 35 -55
-39 -58 -30 -63 184 -5 212 -9 230 -68 260 -36 18 -133 27 -177 16z m143 -427
c-7 -20 -81 -54 -115 -54 -39 0 -81 49 -81 95 0 48 42 93 125 131 l70 32 3
-96 c1 -52 1 -101 -2 -108z" />
  </g>
</svg>
